<svg width="26" height="20" viewBox="0 0 26 20" fill="none" xmlns="http://www.w3.org/2000/svg">
<path fill-rule="evenodd" clip-rule="evenodd" d="M0.567105 5.16785C0.19129 8.61688 0.208042 12.5947 0.730994 16.0298C1.02035 17.9304 2.59082 19.3875 4.52939 19.554L6.55538 19.728C10.7799 20.0907 15.0282 20.0907 19.2527 19.728L21.2787 19.554C23.2173 19.3875 24.7877 17.9304 25.0771 16.0298C25.6 12.5947 25.6168 8.61711 25.241 5.16806C25.1924 4.76821 25.1378 4.36889 25.0771 3.97024C24.7877 2.06957 23.2173 0.612455 21.2787 0.446003L19.2527 0.272045C15.0282 -0.0906818 10.7799 -0.0906815 6.55538 0.272045L4.52939 0.446003C2.59082 0.612455 1.02035 2.06957 0.730994 3.97024C0.670314 4.36882 0.615684 4.76807 0.567105 5.16785ZM6.72965 2.25219C10.8382 1.89942 14.9699 1.89942 19.0784 2.25219L21.1044 2.42615C22.1164 2.51303 22.9362 3.27365 23.0872 4.26581C23.1029 4.36884 23.1182 4.47192 23.133 4.57505L15.6728 8.66879C13.9509 9.61371 11.8571 9.61371 10.1351 8.66879L2.6751 4.5751C2.68993 4.47195 2.7052 4.36886 2.72088 4.26581C2.87193 3.27365 3.69172 2.51303 4.70366 2.42615L6.72965 2.25219ZM23.3792 6.71367C23.6394 9.71861 23.5421 12.7462 23.0872 15.7342C22.9362 16.7264 22.1164 17.487 21.1044 17.5739L19.0784 17.7478C14.9699 18.1006 10.8382 18.1006 6.72965 17.7478L4.70366 17.5739C3.69172 17.487 2.87193 16.7263 2.72088 15.7342C2.26599 12.7462 2.16865 9.71864 2.42886 6.71372L9.1579 10.4063C11.4876 11.6847 14.3204 11.6847 16.6501 10.4063L23.3792 6.71367Z" fill="#FF7384"/>
</svg>
