<svg width="12" height="20" viewBox="0 0 12 20" fill="none" xmlns="http://www.w3.org/2000/svg">
<path fill-rule="evenodd" clip-rule="evenodd" d="M4.23769 1.53769C5.22225 0.553123 6.55761 0 7.95 0H10.65C11.0642 0 11.4 0.335786 11.4 0.75V4.35C11.4 4.76421 11.0642 5.1 10.65 5.1H7.95C7.91022 5.1 7.87206 5.1158 7.84393 5.14393C7.8158 5.17206 7.8 5.21022 7.8 5.25V7.2H10.65C10.881 7.2 11.099 7.3064 11.2412 7.48844C11.3833 7.67048 11.4336 7.90785 11.3776 8.1319L10.4776 11.7319C10.3941 12.0658 10.0942 12.3 9.75 12.3H7.8V18.75C7.8 19.1642 7.46421 19.5 7.05 19.5H3.45C3.03579 19.5 2.7 19.1642 2.7 18.75V12.3H0.75C0.335786 12.3 0 11.9642 0 11.55V7.95C0 7.53579 0.335786 7.2 0.75 7.2H2.7V5.25C2.7 3.85761 3.25312 2.52226 4.23769 1.53769ZM7.95 1.5C6.95544 1.5 6.00161 1.89509 5.29835 2.59835C4.59509 3.30161 4.2 4.25544 4.2 5.25V7.95C4.2 8.36421 3.86421 8.7 3.45 8.7H1.5V10.8H3.45C3.86421 10.8 4.2 11.1358 4.2 11.55V18H6.3V11.55C6.3 11.1358 6.63579 10.8 7.05 10.8H9.16442L9.68942 8.7H7.05C6.63579 8.7 6.3 8.36421 6.3 7.95V5.25C6.3 4.81239 6.47384 4.39271 6.78327 4.08327C7.09271 3.77384 7.51239 3.6 7.95 3.6H9.9V1.5H7.95Z" fill="#F5E4E4"/>
</svg>
