<svg width="25" height="24" viewBox="0 0 25 24" fill="none" xmlns="http://www.w3.org/2000/svg">
<path fill-rule="evenodd" clip-rule="evenodd" d="M3.39614 9.3251C5.8639 14.661 10.2552 18.9033 15.7142 21.2019L15.7315 21.2092L16.7861 21.676C18.129 22.2701 19.7075 21.8481 20.5685 20.6648L22.328 18.2466C22.4355 18.0989 22.4078 17.8936 22.265 17.7791L19.1932 15.3184C19.0405 15.1961 18.816 15.2246 18.6992 15.3811L17.5037 16.983C17.2133 17.372 16.689 17.5072 16.2447 17.3076C12.1628 15.4732 8.88264 12.216 7.03535 8.16267C6.8343 7.72152 6.97043 7.20087 7.36221 6.91256L8.9754 5.72543C9.13303 5.60944 9.16172 5.38647 9.03853 5.23484L6.5601 2.18421C6.44491 2.04243 6.23815 2.01489 6.08941 2.12152L3.641 3.87667C2.44145 4.73656 2.01902 6.31716 2.63131 7.65454L3.39531 9.32332C3.39559 9.32391 3.39586 9.32451 3.39614 9.3251ZM14.897 23.0916C8.96541 20.5914 4.19456 15.9806 1.51315 10.1814L1.51154 10.1779L0.74593 8.50567C-0.274553 6.2767 0.42951 3.64238 2.42876 2.20921L4.87716 0.45406C5.91838 -0.292342 7.36568 -0.0995678 8.17201 0.892919L10.6504 3.94354C11.5128 5.00496 11.3119 6.56575 10.2085 7.37773L9.28413 8.05798C10.8456 11.0666 13.3204 13.524 16.3502 15.0745L17.0352 14.1566C17.853 13.0609 19.4247 12.8615 20.4937 13.7178L23.5654 16.1785C24.5652 16.9794 24.7591 18.4172 24.0067 19.4511L22.2472 21.8693C20.8122 23.8414 18.1814 24.5447 15.9432 23.5545L14.897 23.0916Z" fill="#FF7384"/>
</svg>
