<svg width="20" height="20" viewBox="0 0 20 20" fill="none" xmlns="http://www.w3.org/2000/svg">
<path fill-rule="evenodd" clip-rule="evenodd" d="M9.75 0C4.36554 0 0 4.36554 0 9.75C0 15.1345 4.36554 19.5 9.75 19.5C15.1345 19.5 19.5 15.1345 19.5 9.75C19.5 9.09798 19.4332 8.42275 19.3107 7.80425C19.2411 7.45305 18.933 7.2 18.5749 7.2H9.75C9.33579 7.2 9 7.53579 9 7.95V11.55C9 11.9642 9.33579 12.3 9.75 12.3H13.6328C13.3518 12.728 13.0024 13.1068 12.6002 13.4206C12.5943 13.4243 12.5886 13.428 12.5828 13.4319L12.5815 13.4328L12.5825 13.4343C11.7986 14.0399 10.8165 14.4 9.75 14.4C7.18206 14.4 5.1 12.3179 5.1 9.75C5.1 7.18206 7.18206 5.1 9.75 5.1C10.9337 5.1 12.0108 5.54565 12.834 6.27792C13.1307 6.54193 13.5819 6.52876 13.8628 6.24788L16.4084 3.70223C16.5523 3.55834 16.6316 3.36216 16.628 3.1587C16.6244 2.95524 16.5383 2.76197 16.3894 2.62324C14.6504 1.00246 12.3199 0 9.75 0ZM12.952 14.9992C12.0205 15.5703 10.9246 15.9 9.75 15.9C7.44196 15.9 5.43074 14.6284 4.37878 12.7475L2.70169 14.0397C4.15019 16.4144 6.76508 18 9.75 18C11.5712 18 13.2546 17.4098 14.6195 16.4102L12.952 14.9992ZM15.7554 15.4064C17.1471 13.9295 18 11.9393 18 9.75C18 9.40248 17.9775 9.04605 17.9353 8.7H10.5V10.8H14.8364C15.0799 10.8 15.3083 10.9183 15.4488 11.1171C15.5894 11.316 15.6246 11.5708 15.5433 11.8003C15.2429 12.6489 14.7619 13.4127 14.1461 14.0446L15.7554 15.4064ZM2.76958 5.35094C4.23099 3.037 6.81115 1.5 9.75 1.5C11.6418 1.5 13.3806 2.14163 14.7729 3.21644L13.2736 4.71571C12.2772 4.01519 11.0633 3.6 9.75 3.6C7.50612 3.6 5.54278 4.80193 4.46872 6.59704L2.76958 5.35094ZM2.08007 6.70541C1.70577 7.64743 1.5 8.67471 1.5 9.75C1.5 10.7758 1.68727 11.7579 2.02947 12.664L3.79748 11.3018C3.66859 10.8061 3.6 10.2861 3.6 9.75C3.6 9.14364 3.68777 8.55776 3.8513 8.00438L2.08007 6.70541Z" fill="#F5E4E4"/>
</svg>
