<svg width="17" height="19" viewBox="0 0 17 19" fill="none" xmlns="http://www.w3.org/2000/svg">
<path fill-rule="evenodd" clip-rule="evenodd" d="M10.0857 2.20277C9.19955 1.33746 7.80045 1.33746 6.91432 2.20277L2.20513 6.8013C2.08975 6.91397 2.01214 7.06073 1.9833 7.22079C1.41926 10.351 1.37762 13.5556 1.86014 16.6999L1.97468 17.4462H5.00437V11.0122C5.00437 10.5831 5.34616 10.2353 5.76778 10.2353H11.2322C11.6538 10.2353 11.9956 10.5831 11.9956 11.0122V17.4462H15.0253L15.1399 16.6999C15.6224 13.5556 15.5807 10.351 15.0167 7.22079C14.9879 7.06073 14.9102 6.91397 14.7949 6.8013L10.0857 2.20277ZM5.85719 1.08164C7.33409 -0.360548 9.66591 -0.360548 11.1428 1.08164L15.852 5.68017C16.1987 6.01868 16.4318 6.45963 16.5185 6.94054C17.1135 10.2425 17.1574 13.6228 16.6484 16.9396L16.4644 18.1386C16.3883 18.6344 15.9687 19 15.4755 19H11.2322C10.8106 19 10.4688 18.6522 10.4688 18.2231V11.789H6.5312V18.2231C6.5312 18.6522 6.1894 19 5.76778 19H1.5245C1.03135 19 0.611689 18.6344 0.535596 18.1386L0.351601 16.9396C-0.157391 13.6228 -0.113472 10.2425 0.481513 6.94054C0.568168 6.45963 0.80135 6.01868 1.14801 5.68016L5.85719 1.08164Z" fill="#FF7384"/>
</svg>
