<svg width="19" height="19" viewBox="0 0 19 19" fill="none" xmlns="http://www.w3.org/2000/svg">
<path d="M13.4421 4.45757C13.4421 3.90528 13.8898 3.45757 14.4421 3.45757C14.9944 3.45757 15.4421 3.90528 15.4421 4.45757C15.4421 5.00985 14.9944 5.45757 14.4421 5.45757C13.8898 5.45757 13.4421 5.00985 13.4421 4.45757Z" fill="#F5E4E4"/>
<path fill-rule="evenodd" clip-rule="evenodd" d="M9.44208 4.70757C6.81873 4.70757 4.69208 6.83421 4.69208 9.45757C4.69208 12.0809 6.81873 14.2076 9.44208 14.2076C12.0654 14.2076 14.1921 12.0809 14.1921 9.45757C14.1921 6.83421 12.0654 4.70757 9.44208 4.70757ZM6.19208 9.45757C6.19208 7.66264 7.64715 6.20757 9.44208 6.20757C11.237 6.20757 12.6921 7.66264 12.6921 9.45757C12.6921 11.2525 11.237 12.7076 9.44208 12.7076C7.64715 12.7076 6.19208 11.2525 6.19208 9.45757Z" fill="#F5E4E4"/>
<path fill-rule="evenodd" clip-rule="evenodd" d="M14.7003 0.290581C11.2338 -0.0968602 7.65042 -0.0968602 4.18385 0.290581C2.17179 0.515458 0.547457 2.10047 0.310903 4.123C-0.103634 7.6673 -0.103635 11.2478 0.310903 14.7921C0.547457 16.8147 2.17179 18.3997 4.18385 18.6245C7.65042 19.012 11.2338 19.012 14.7003 18.6245C16.7124 18.3997 18.3367 16.8147 18.5733 14.7921C18.9878 11.2478 18.9878 7.66729 18.5733 4.123C18.3367 2.10047 16.7124 0.515458 14.7003 0.290581ZM4.35046 1.7813C7.7063 1.40623 11.1779 1.40623 14.5337 1.7813C15.8638 1.92996 16.9293 2.97957 17.0834 4.29725C17.4844 7.72577 17.4844 11.1894 17.0834 14.6179C16.9293 15.9356 15.8638 16.9852 14.5337 17.1338C11.1779 17.5089 7.7063 17.5089 4.35046 17.1338C3.02035 16.9852 1.95486 15.9356 1.80075 14.6179C1.39975 11.1894 1.39975 7.72577 1.80075 4.29725C1.95486 2.97957 3.02035 1.92996 4.35046 1.7813Z" fill="#F5E4E4"/>
</svg>
