<svg width="18" height="21" viewBox="0 0 18 21" fill="none" xmlns="http://www.w3.org/2000/svg">
<path fill-rule="evenodd" clip-rule="evenodd" d="M3.91199 8.75C3.91199 6.12665 6.05487 4 8.69824 4C11.3416 4 13.4845 6.12665 13.4845 8.75C13.4845 11.3734 11.3416 13.5 8.69824 13.5C6.05487 13.5 3.91199 11.3734 3.91199 8.75ZM8.69824 5.5C6.88962 5.5 5.42344 6.95507 5.42344 8.75C5.42344 10.5449 6.88962 12 8.69824 12C10.5069 12 11.973 10.5449 11.973 8.75C11.973 6.95507 10.5069 5.5 8.69824 5.5Z" fill="#FF7384"/>
<path fill-rule="evenodd" clip-rule="evenodd" d="M0.15792 7.60685C0.514951 3.30824 4.13452 0 8.48063 0H8.91586C13.262 0 16.8815 3.30824 17.2386 7.60685C17.4304 9.916 16.7116 12.2089 15.2338 14.0026L10.4041 19.8644C9.52246 20.9345 7.87403 20.9345 6.99235 19.8644L2.1627 14.0026C0.684853 12.2089 -0.0338717 9.916 0.15792 7.60685ZM8.48063 1.5C4.92113 1.5 1.95667 4.20948 1.66426 7.73008C1.50464 9.65192 2.10281 11.5602 3.33279 13.0531L8.16243 18.9149C8.43936 19.251 8.95713 19.251 9.23406 18.9149L14.0637 13.0531C15.2937 11.5602 15.8919 9.65192 15.7322 7.73008C15.4398 4.20948 12.4754 1.5 8.91586 1.5H8.48063Z" fill="#FF7384"/>
</svg>
