<svg width="22" height="18" viewBox="0 0 22 18" fill="none" xmlns="http://www.w3.org/2000/svg">
<path fill-rule="evenodd" clip-rule="evenodd" d="M13.7715 0.0809499C14.2799 -0.00613239 14.8492 -0.0352084 15.385 0.055434C16.3418 0.217317 17.2257 0.662045 17.9244 1.3288C18.3811 1.33913 18.8299 1.24916 19.227 1.1209C19.5631 1.01235 19.847 0.881276 20.046 0.777639C20.1449 0.726108 20.2213 0.682149 20.271 0.65239C20.2958 0.637533 20.3138 0.626289 20.3245 0.619498L20.3341 0.613436C20.6309 0.415708 21.0261 0.454192 21.279 0.705698C21.5319 0.957262 21.5726 1.35218 21.3764 1.65009C21.1687 1.96538 20.8803 2.52745 20.5573 3.15721C20.5065 3.25623 20.4548 3.35692 20.4025 3.45859C20.2172 3.81855 20.0272 4.18237 19.8501 4.4945C19.7389 4.69049 19.62 4.88946 19.5001 5.0614V5.33518C19.5077 6.34081 19.3924 7.34119 19.1583 8.31441C19.011 8.92675 18.8167 9.52835 18.5765 10.1137C17.9541 11.6304 17.0357 13.0078 15.8749 14.1656C14.7142 15.3233 13.3344 16.2382 11.8162 16.8567C10.2992 17.4747 8.6745 17.7845 7.03665 17.7681C4.66234 17.7701 2.33798 17.0861 0.343255 15.7982C0.0494542 15.6085 -0.0742448 15.2409 0.0450916 14.9121C0.164428 14.5834 0.495121 14.3808 0.842194 14.4238C1.14255 14.4609 1.44496 14.4791 1.74762 14.4781C2.83507 14.475 3.90181 14.2348 4.87567 13.7821C4.56612 13.6412 4.27058 13.4675 3.99443 13.2627C3.18271 12.6608 2.5788 11.8208 2.26673 10.8597C2.18564 10.6099 2.24108 10.3359 2.41289 10.1374C2.41597 10.1338 2.41908 10.1303 2.42221 10.1268C2.23869 9.96315 2.06696 9.78496 1.90886 9.59333C1.19754 8.73112 0.805866 7.64969 0.800085 6.53195L0.800065 6.52807L0.800075 6.47807C0.800075 6.21221 0.940827 5.96621 1.17003 5.83149C1.22813 5.79734 1.28972 5.77164 1.35307 5.7544C1.01473 5.07931 0.83879 4.33387 0.840075 3.57761C0.839675 2.72084 1.06347 1.87888 1.48923 1.13537C1.61214 0.920738 1.83297 0.7805 2.0795 0.760524C2.32603 0.740548 2.56656 0.843402 2.72242 1.03545C3.68498 2.22146 4.88626 3.19172 6.24825 3.88319C6.94839 4.23864 7.68294 4.51634 8.43874 4.71277C8.86247 4.8229 9.29288 4.90749 9.72765 4.96591C9.7085 4.24266 9.85133 3.51979 10.1511 2.85186C10.5907 1.87203 11.3432 1.06585 12.2904 0.559761C12.6916 0.345432 13.2241 0.174721 13.7715 0.0809499ZM2.49335 7.62844C2.623 7.99333 2.81586 8.33565 3.06592 8.63875C3.55724 9.23429 4.23919 9.64185 4.99641 9.79249C5.33369 9.85958 5.58213 10.1475 5.59916 10.4909C5.61618 10.8344 5.39743 11.1455 5.06843 11.2456C4.79594 11.3285 4.51676 11.3863 4.23441 11.4184C4.42099 11.6589 4.64047 11.8743 4.88787 12.0578C5.44906 12.4739 6.126 12.7048 6.82451 12.7182C7.14143 12.7243 7.4203 12.929 7.52112 13.2295C7.62195 13.53 7.52296 13.8615 7.27386 14.0575C6.22469 14.883 5.01149 15.4587 3.72594 15.7526C4.79142 16.0938 5.90887 16.2695 7.03916 16.2681L7.04786 16.2681C8.48792 16.283 9.91652 16.0109 11.2502 15.4676C12.5839 14.9242 13.796 14.1206 14.8156 13.1036C15.8353 12.0865 16.642 10.8765 17.1888 9.54423C17.3998 9.03001 17.5705 8.50155 17.6999 7.96364C17.9057 7.10787 18.007 6.2282 18.0001 5.34394L18.0001 5.33807V4.80807C18.0001 4.62622 18.0661 4.45056 18.186 4.31379C18.2553 4.23475 18.3764 4.05219 18.5455 3.75429C18.7061 3.47116 18.8839 3.13126 19.0688 2.77208C19.08 2.75035 19.0912 2.72852 19.1025 2.70658C18.6229 2.81073 18.0793 2.86531 17.5095 2.80373C17.329 2.78423 17.1618 2.69994 17.0387 2.5665C16.5358 2.02116 15.8662 1.65816 15.1348 1.53442C14.8102 1.47951 14.4179 1.49208 14.0248 1.55942C13.5977 1.63258 13.226 1.76059 12.9973 1.88277C12.343 2.23234 11.8233 2.78918 11.5196 3.46597C11.2159 4.14275 11.1454 4.9012 11.3192 5.62236C11.3746 5.85227 11.3183 6.09485 11.1674 6.27688C11.0164 6.45891 10.7884 6.55906 10.5522 6.54712C9.70877 6.50446 8.87429 6.37581 8.06142 6.16454C7.20152 5.94105 6.36579 5.6251 5.56921 5.22069C4.39643 4.62527 3.32838 3.84818 2.40354 2.92049C2.36135 3.1361 2.33993 3.35613 2.34008 3.57758L2.34007 3.5795C2.33903 4.13022 2.47418 4.67265 2.73349 5.1585C2.9928 5.64435 3.36822 6.05854 3.82633 6.36419C4.10436 6.54969 4.22608 6.89677 4.12483 7.21529C4.02358 7.53381 3.72378 7.74689 3.38968 7.7378C3.08708 7.72956 2.78702 7.69276 2.49335 7.62844Z" fill="#F5E4E4"/>
</svg>
